<svg width="308" height="300" viewBox="0 0 308 300" fill="none" xmlns="http://www.w3.org/2000/svg">
<path d="M133.562 244.938C128.312 244.938 123.688 244.417 119.688 243.375C115.729 242.292 112.688 240.979 110.562 239.438C108.479 237.896 107.438 236.438 107.438 235.062C107.438 233.979 107.833 232.646 108.625 231.062C109.458 229.479 110.438 228.125 111.562 227C112.688 225.833 113.625 225.25 114.375 225.25C114.833 225.25 115.812 225.646 117.312 226.438C119.562 227.604 121.688 228.542 123.688 229.25C125.729 229.958 128.062 230.312 130.688 230.312C133.604 230.312 136.062 229.75 138.062 228.625C140.104 227.458 141.125 225.438 141.125 222.562C141.125 220.896 140.604 219.458 139.562 218.25C138.521 217.042 137.188 216.021 135.562 215.188C133.938 214.354 131.729 213.375 128.938 212.25L124 210.125C121 208.667 118.417 207.062 116.25 205.312C114.125 203.562 112.375 201.25 111 198.375C109.667 195.5 109 191.979 109 187.812C109 182.729 110.25 178.5 112.75 175.125C115.25 171.75 118.5 169.271 122.5 167.688C126.5 166.104 130.792 165.312 135.375 165.312C139.125 165.312 142.521 165.708 145.562 166.5C148.604 167.25 150.979 168.229 152.688 169.438C154.438 170.646 155.312 171.854 155.312 173.062C155.312 174.062 154.979 175.354 154.312 176.938C153.688 178.479 152.896 179.833 151.938 181C150.979 182.167 150.083 182.75 149.25 182.75C148.875 182.75 148.208 182.542 147.25 182.125C145.708 181.5 144.146 181 142.562 180.625C141.021 180.208 139.125 180 136.875 180C133 180 130.312 180.625 128.812 181.875C127.312 183.083 126.562 184.521 126.562 186.188C126.562 188.104 127.062 189.708 128.062 191C129.104 192.292 130.396 193.354 131.938 194.188C133.521 195.021 135.708 195.979 138.5 197.062C142.708 198.854 146.146 200.562 148.812 202.188C151.479 203.771 153.771 206.062 155.688 209.062C157.646 212.062 158.625 215.896 158.625 220.562C158.625 226.271 157.417 230.958 155 234.625C152.625 238.25 149.542 240.875 145.75 242.5C142 244.125 137.938 244.938 133.562 244.938ZM167.438 244.188C162.896 244.188 160.625 243.375 160.625 241.75C160.625 241.292 160.771 240.625 161.062 239.75L185.562 168.312C186.146 166.729 188.25 165.938 191.875 165.938H197.625C201.25 165.938 203.354 166.729 203.938 168.312L228.438 239.75C228.646 240.583 228.75 241.25 228.75 241.75C228.75 242.583 228.292 243.208 227.375 243.625C226.5 244 225.104 244.188 223.188 244.188H218.312C216.562 244.188 215.146 244.021 214.062 243.688C213.021 243.312 212.375 242.708 212.125 241.875L207.625 228.312H181.438L176.938 241.875C176.479 243.417 174.771 244.188 171.812 244.188H167.438ZM202.875 213.625L196.562 193.875C196.188 192.875 195.854 191.729 195.562 190.438C195.312 189.146 195.083 187.917 194.875 186.75H194.438L194.188 188.125C193.771 190.583 193.292 192.5 192.75 193.875L186.188 213.625H202.875Z" fill="white"/>
<path d="M0 63H63C74.0457 63 83 71.9543 83 83V87C83 98.0457 74.0457 107 63 107H0V63Z" fill="white" fill-opacity="0.92"/>
<path d="M0 128H63C74.0457 128 83 136.954 83 148V152C83 163.046 74.0457 172 63 172H0V128Z" fill="white" fill-opacity="0.92"/>
<path d="M0 193H63C74.0457 193 83 201.954 83 213V217C83 228.046 74.0457 237 63 237H0V193Z" fill="white" fill-opacity="0.92"/>
<path d="M211.592 127.019L196.749 57.467L145.812 107.664L211.592 127.019Z" fill="white"/>
<path d="M125.408 31.9815L191.188 51.3356L140.251 101.533L125.408 31.9815Z" fill="white"/>
</svg>
